<svg width="160" height="40" viewBox="0 0 160 40" fill="none" xmlns="http://www.w3.org/2000/svg">
<path d="M38.2479 10.0724L37.3595 8.57843C37.1128 8.14469 36.5699 8.00012 36.1257 8.24108C36.0764 8.28927 35.9777 8.33746 35.9283 8.38566L33.9049 10.3616C33.6088 10.6507 33.5594 11.1326 33.8062 11.47C34.5465 12.5784 35.1387 13.7832 35.5829 15.0362C38.3959 23.1808 33.9049 32 25.5643 34.747C23.9357 35.2771 22.2084 35.5663 20.481 35.5663C17.8653 35.5663 15.299 34.9397 13.0288 33.7349L16.4835 30.3615C22.3564 32.5301 28.9203 29.6386 31.1411 23.9037C32.2269 21.0603 32.0788 17.8796 30.7463 15.1326C30.5489 14.6989 30.006 14.5061 29.5125 14.6989C29.4138 14.7471 29.3151 14.7953 29.2657 14.8917L27.1929 16.8675C26.9462 17.1085 26.8968 17.3977 26.9462 17.6868L27.1436 18.4097C27.9826 21.976 25.7124 25.5904 22.0603 26.4097C20.3823 26.7952 18.6056 26.5542 17.1251 25.6868L16.2367 25.1567C15.8912 24.9639 15.4471 25.0121 15.151 25.3012L6.76105 33.494C6.41559 33.8313 6.41559 34.4096 6.76105 34.747C6.81041 34.7952 6.81041 34.7952 6.85976 34.8434L8.09357 35.759C11.5976 38.5542 15.99 40 20.481 40C31.7827 40 40.9623 31.0362 40.9623 19.9519C40.9623 16.482 40.0246 13.1085 38.2479 10.0724Z" fill="url(#paint0_linear_5208_49000)"/>
<path d="M32.918 4.14456C29.3647 1.44578 24.9723 0 20.4812 0C9.17955 0 0 8.96381 0 20.0481C0 23.518 0.937696 26.9396 2.66503 29.9276L3.55337 31.4215C3.80013 31.8553 4.34301 31.9998 4.78718 31.7589C4.83653 31.7107 4.93524 31.6625 4.98459 31.6143L7.00804 29.6384C7.30415 29.3493 7.35351 28.8673 7.10674 28.53C6.36646 27.4216 5.77423 26.2167 5.33006 24.9637C2.51697 16.8192 7.00804 7.99996 15.3486 5.25299C16.9772 4.72287 18.7046 4.43371 20.4319 4.43371C23.0476 4.43371 25.6139 5.06022 27.8841 6.26503L24.4294 9.63851C18.5565 7.46984 11.9926 10.3614 9.77177 16.0963C9.27825 17.3493 9.03149 18.6987 9.03149 20.0481C9.03149 20.2409 9.08084 21.0601 9.08084 21.2047C9.2289 22.4577 9.57436 23.7107 10.1666 24.8673C10.364 25.3011 10.9069 25.4939 11.4004 25.3011C11.4991 25.2529 11.5978 25.2047 11.6472 25.1083L13.72 23.0842C13.9667 22.8433 14.0161 22.5541 13.9667 22.265L13.8187 21.5421C12.9797 17.9758 15.2499 14.3614 18.902 13.5421C20.5799 13.1566 22.3566 13.3975 23.8372 14.265L24.7255 14.7951C25.071 14.9879 25.5152 14.9397 25.8113 14.6505L34.2012 6.4578C34.5467 6.12045 34.5467 5.54214 34.2012 5.20479C34.1519 5.1566 34.1519 5.1566 34.1025 5.10841L32.918 4.14456Z" fill="url(#paint1_linear_5208_49000)"/>
<path d="M67.4131 25.5418C67.117 25.3008 66.6235 25.3008 66.3274 25.59C64.9949 26.602 63.4649 27.5177 61.2441 27.5177C57.1478 27.5177 53.8412 24.1442 53.8412 20.0478C53.8412 15.9514 57.1478 12.5298 61.2441 12.5298C63.0208 12.5298 64.8962 13.2527 66.3274 14.4575C66.4754 14.6502 66.7222 14.7466 66.969 14.7466C67.1664 14.7466 67.3638 14.6021 67.5118 14.4575L68.8444 13.1081C68.9924 12.9635 69.0911 12.7225 69.0911 12.4816C69.0911 12.2406 68.9924 12.0478 68.795 11.8551C66.4754 9.87918 64.1559 9.01172 61.2441 9.01172C55.0257 9.01172 49.9424 13.9756 49.9424 20.096C49.9424 26.1683 54.9763 31.1321 61.2441 31.1321C64.1065 31.1803 66.8209 30.0719 68.8444 28.1442C69.0418 27.9514 69.1405 27.7104 69.0911 27.4695C69.0911 27.2767 68.9924 27.0839 68.8444 26.9393L67.4131 25.5418Z" fill="#1F1A31"/>
<path d="M77.0851 9.25391L75.0617 9.25391C74.6175 9.25391 74.2227 9.63945 74.2227 10.0732L74.2227 29.9285C74.2227 30.3622 74.6175 30.7478 75.0617 30.7478L77.0851 30.7478C77.5293 30.7478 77.9241 30.3622 77.9241 29.9285L77.9241 10.0732C77.9241 9.63945 77.5786 9.25391 77.0851 9.25391Z" fill="#1F1A31"/>
<path d="M100.924 15.9527C100.924 12.29 97.8151 9.25391 94.015 9.25391L85.7238 9.25391C85.2302 9.25391 84.8848 9.63945 84.8848 10.0732L84.8848 29.9285C84.8848 30.4104 85.2796 30.7478 85.7238 30.7478L87.6979 30.7478C88.142 30.7478 88.5368 30.3622 88.5368 29.9285L88.5368 22.555L92.6824 22.555L96.68 30.3622C96.828 30.6032 97.1242 30.796 97.4203 30.796L99.7892 30.796C100.085 30.796 100.381 30.6514 100.529 30.4104C100.678 30.1213 100.678 29.8321 100.529 29.543L96.4826 22.1695C99.2463 20.9647 100.924 18.6033 100.924 15.9527ZM97.1735 16.0009C97.1735 17.8804 95.5942 19.4707 93.7188 19.4707L88.5368 19.4707L88.5368 12.7238L93.7682 12.7238C95.5942 12.6756 97.1735 14.2177 97.1735 16.0009Z" fill="#1F1A31"/>
<path d="M122.59 25.5418C122.294 25.3008 121.8 25.3008 121.504 25.59C120.172 26.602 118.642 27.5177 116.421 27.5177C112.325 27.5177 109.018 24.1442 109.018 20.0478C109.018 15.9514 112.325 12.5298 116.372 12.5298C118.148 12.5298 120.024 13.2527 121.455 14.4575C121.603 14.6502 121.85 14.7466 122.096 14.7466C122.294 14.7466 122.491 14.6021 122.639 14.4575L123.972 13.1081C124.12 12.9635 124.219 12.7225 124.219 12.4816C124.219 12.2406 124.12 12.0478 123.922 11.8551C121.603 9.87918 119.283 9.01172 116.372 9.01172C110.153 9.01172 105.07 13.9756 105.07 20.096C105.07 26.1683 110.104 31.1321 116.372 31.1321C119.234 31.1803 121.948 30.0719 123.972 28.1442C124.169 27.9514 124.268 27.7104 124.219 27.4695C124.219 27.2767 124.12 27.0839 123.972 26.9393L122.59 25.5418Z" fill="#1F1A31"/>
<path d="M141.095 27.4225L133.1 27.4225L133.1 10.0732C133.1 9.63945 132.705 9.25391 132.261 9.25391L130.237 9.25391C129.744 9.25391 129.398 9.63945 129.398 10.0732L129.398 29.9285C129.398 30.4104 129.793 30.7478 130.237 30.7478L141.095 30.7478C141.588 30.7478 141.934 30.3622 141.934 29.9285L141.934 28.29C141.934 27.808 141.588 27.4225 141.095 27.4225Z" fill="#1F1A31"/>
<path d="M159.161 12.6261C159.654 12.6261 160 12.2405 160 11.8068L160 10.1201C160 9.63813 159.605 9.30078 159.161 9.30078L146.971 9.30078C146.477 9.30078 146.132 9.68632 146.132 10.1201L146.132 29.9754C146.132 30.4573 146.527 30.7947 146.971 30.7947L159.161 30.7947C159.654 30.7947 160 30.4091 160 29.9754L160 28.3368C160 27.8549 159.605 27.5176 159.161 27.5176L149.784 27.5176L149.784 21.5417L157.631 21.5417C158.124 21.5417 158.47 21.1561 158.47 20.7224L158.47 19.0357C158.47 18.6019 158.075 18.2164 157.631 18.2164L149.784 18.2164L149.784 12.6261L159.161 12.6261Z" fill="#1F1A31"/>
<defs>
<linearGradient id="paint0_linear_5208_49000" x1="13.2395" y1="41.255" x2="41.3867" y2="12.4304" gradientUnits="userSpaceOnUse">
<stop stop-color="#B090F5"/>
<stop offset="1" stop-color="#5FBFFF"/>
</linearGradient>
<linearGradient id="paint1_linear_5208_49000" x1="-1.1316" y1="26.896" x2="27.0196" y2="-1.9309" gradientUnits="userSpaceOnUse">
<stop stop-color="#68D7FA"/>
<stop offset="1" stop-color="#4EE498"/>
</linearGradient>
</defs>
</svg>
