<svg width="5565" height="1169" viewBox="0 0 5565 1169" fill="none" xmlns="http://www.w3.org/2000/svg">
<path d="M1968.85 312.368V392.311H1766.33V941.249H1681.06V392.311H1478.54V312.368H1968.85ZM2143.83 509.56C2206.01 509.56 2258.71 531.028 2301.94 573.958C2345.17 616.888 2367.08 669.152 2367.67 730.734C2367.67 792.912 2346.06 845.025 2302.83 887.066C2259.6 929.107 2206.61 950.723 2143.83 951.908C2082.25 951.908 2029.85 930.59 1986.61 887.954C1943.38 845.318 1921.18 792.912 1920 730.734C1920 669.742 1941.46 617.926 1984.39 575.29C2027.33 532.654 2080.48 510.746 2143.83 509.56ZM2005.27 730.734C2005.27 773.963 2018 809.047 2043.46 835.992C2068.92 862.937 2102.38 876.703 2143.83 877.295C2185.88 877.295 2219.34 863.823 2244.21 836.88C2269.08 809.937 2281.81 774.556 2282.4 730.734C2282.4 687.506 2269.97 652.422 2245.09 625.477C2220.22 598.531 2186.17 584.765 2142.95 584.173C2100.9 584.173 2067.44 598.089 2042.57 625.921C2017.7 653.752 2005.27 688.689 2005.27 730.734ZM2547.99 269.732V703.198L2730.08 520.219H2841.11L2643.92 712.081L2857.1 941.249H2743.4L2547.99 722.74V941.249H2468.05V269.732H2547.99ZM3121.8 509.56C3186.34 509.56 3236.53 529.84 3272.36 570.405C3308.18 610.97 3326.39 666.78 3326.98 737.84V760.046H2989.45C2989.45 794.392 3003.22 823.259 3030.75 846.651C3058.29 870.043 3091.9 882.032 3131.57 882.625C3175.39 882.625 3213.88 861.603 3247.04 819.559L3307.44 865.748C3262.44 923.187 3200.26 951.908 3120.91 951.908C3056.37 951.908 3004.4 931.33 2965.02 890.175C2925.65 849.02 2905.36 795.87 2904.18 730.734C2904.18 667.966 2924.46 615.706 2965.02 573.958C3005.59 532.21 3057.84 510.746 3121.8 509.56ZM3241.71 696.092C3240.53 656.417 3229.28 626.067 3207.96 605.047C3186.64 584.026 3157.33 573.514 3120.02 573.514C3095.15 573.514 3072.8 579.583 3052.96 591.723C3033.12 603.863 3017.58 619.555 3006.33 638.8C2995.07 658.045 2989.45 677.143 2989.45 696.092H3241.71ZM3643.2 509.56C3690.58 509.56 3727.73 523.772 3754.68 552.196C3781.62 580.62 3795.39 618.815 3795.98 666.78V941.249H3716.04V689.875C3716.04 657.305 3707.6 631.548 3690.72 612.597C3673.85 593.646 3650.31 584.173 3620.11 584.173C3582.8 584.173 3553.93 596.608 3533.5 621.479C3513.07 646.35 3502.86 679.513 3502.86 720.963V941.249H3422.92V520.219H3502.86V585.061H3504.63C3515.89 561.374 3534.09 542.869 3559.26 529.546C3584.43 516.222 3612.41 509.56 3643.2 509.56ZM4282.74 427.841L4130.85 941.249H4041.14L3857.27 312.368H3946.09L4084.66 815.118H4086.44L4234.78 312.368H4332.48L4480.82 815.118H4482.6L4621.17 312.368H4709.99L4527.01 941.249H4437.3L4284.52 427.841H4282.74ZM4898.3 509.56C4951.59 509.56 4993.79 521.697 5024.88 545.975C5055.96 570.254 5072.4 604.009 5074.17 647.236V872.851C5074.17 894.169 5075.36 916.968 5077.73 941.247H5006.67C5004.89 922.298 5004 900.98 5004 877.293H5002.22C4983.87 904.533 4962.7 923.779 4938.71 935.029C4914.73 946.279 4886.75 951.906 4854.77 951.906C4811.55 951.906 4776.46 940.358 4749.52 917.264C4722.57 894.169 4709.1 863.671 4709.1 825.774C4709.1 777.809 4729.24 741.537 4769.5 716.964C4809.77 692.39 4866.62 680.101 4940.05 680.101H4999.56V665.001C4999.56 636.577 4990.23 614.224 4971.58 597.938C4952.93 581.652 4928.5 573.511 4898.3 573.511C4875.8 573.511 4856.11 576.916 4839.23 583.726C4822.35 590.536 4802.37 603.12 4779.27 621.478L4731.31 571.736C4776.91 531.469 4832.57 510.746 4898.3 509.56ZM4789.04 819.559C4789.04 865.157 4819.25 887.954 4879.65 887.954C4915.77 887.954 4944.63 877.147 4966.25 855.533C4987.87 833.919 4998.97 802.682 4999.56 761.823V738.728H4954.26C4902.15 738.728 4861.59 745.39 4832.57 758.714C4803.55 772.038 4789.04 792.319 4789.04 819.559ZM5232.28 520.219L5357.52 848.871H5359.3L5478.33 520.219H5564.49L5365.52 1030.07C5347.16 1079.23 5327.03 1112.24 5305.12 1129.11C5283.21 1145.99 5255.08 1154.43 5220.73 1154.43C5191.72 1154.43 5168.03 1150.58 5149.67 1142.88L5159.44 1070.93C5176.03 1076.86 5192.01 1079.82 5207.41 1079.82C5232.28 1079.82 5250.19 1073.75 5261.15 1061.61C5272.1 1049.47 5281.73 1032.15 5290.02 1009.64L5314.89 943.914L5139.9 520.219H5232.28Z" fill="white"/>
<mask id="mask0_3084_38278" style="mask-type:alpha" maskUnits="userSpaceOnUse" x="0" y="0" width="1169" height="1169">
<ellipse cx="584.421" cy="584.421" rx="584.421" ry="584.421" fill="#D9D9D9"/>
</mask>
<g mask="url(#mask0_3084_38278)">
<mask id="mask1_3084_38278" style="mask-type:luminance" maskUnits="userSpaceOnUse" x="0" y="-30" width="1229" height="1229">
<path d="M1228.78 -29.9707H0V1198.81H1228.78V-29.9707Z" fill="white"/>
</mask>
<g mask="url(#mask1_3084_38278)">
<path d="M1228.78 -29.9707H0V1198.81H1228.78V-29.9707Z" fill="white"/>
<path d="M1228.78 1198.81H0L0.000107424 -29.9707L1228.78 -29.9706V1198.81Z" fill="url(#paint0_linear_3084_38278)"/>
<path d="M202.743 767.32L231.82 796.377L612.849 415.424L993.88 796.377L1022.96 767.32L612.849 357.088L202.743 767.32Z" fill="white"/>
</g>
</g>
<defs>
<linearGradient id="paint0_linear_3084_38278" x1="614.391" y1="865.4" x2="797.342" y2="-74.4256" gradientUnits="userSpaceOnUse">
<stop stop-color="#FFB706"/>
<stop offset="1" stop-color="#EFE9E6"/>
</linearGradient>
</defs>
</svg>
