<svg width="522" height="117" viewBox="0 0 522 117" fill="none" xmlns="http://www.w3.org/2000/svg">
<path d="M195.526 37.7039V44.0847L179.709 44.0847V87.8996H173.049V44.0847H157.232V37.7039L195.526 37.7039ZM209.193 53.4432C214.049 53.4432 218.165 55.1568 221.541 58.5833C224.918 62.0099 226.629 66.1815 226.675 71.0968C226.675 76.0597 224.987 80.2192 221.611 83.5748C218.234 86.9304 214.095 88.6557 209.193 88.7504C204.383 88.7504 200.29 87.0488 196.914 83.6457C193.537 80.2426 191.803 76.0597 191.711 71.0968C191.711 66.2286 193.387 62.0928 196.74 58.6897C200.093 55.2866 204.244 53.5379 209.193 53.4432ZM198.371 71.0968C198.371 74.5472 199.365 77.3475 201.354 79.4982C203.342 81.6489 205.955 82.7477 209.193 82.795C212.476 82.795 215.089 81.7196 217.032 79.5691C218.974 77.4186 219.969 74.5946 220.015 71.0968C220.015 67.6464 219.044 64.8461 217.101 62.6954C215.159 60.5447 212.499 59.4459 209.123 59.3986C205.84 59.3986 203.227 60.5094 201.284 62.7308C199.342 64.9523 198.371 67.7409 198.371 71.0968ZM240.757 34.3008V68.899L254.979 54.294H263.651L248.25 69.6079L264.899 87.8996H256.02L240.757 70.4587V87.8996H234.514V34.3008H240.757ZM285.572 53.4432C290.613 53.4432 294.533 55.062 297.331 58.2997C300.129 61.5375 301.551 65.9922 301.598 71.664V73.4364H275.236C275.236 76.1778 276.311 78.4819 278.462 80.349C280.612 82.2161 283.237 83.1731 286.335 83.2203C289.758 83.2203 292.764 81.5424 295.354 78.1866L300.071 81.8733C296.557 86.4579 291.7 88.7504 285.503 88.7504C280.462 88.7504 276.403 87.1079 273.328 83.823C270.253 80.5381 268.669 76.2957 268.576 71.0968C268.576 66.0868 270.16 61.9155 273.328 58.5833C276.496 55.2511 280.578 53.5379 285.572 53.4432ZM294.938 68.3318C294.845 65.165 293.966 62.7425 292.302 61.0647C290.637 59.3869 288.347 58.5479 285.434 58.5479C283.491 58.5479 281.745 59.0323 280.196 60.0013C278.647 60.9702 277.433 62.2228 276.554 63.7589C275.675 65.2949 275.236 66.8193 275.236 68.3318H294.938ZM326.294 53.4432C329.994 53.4432 332.896 54.5776 335.001 56.8463C337.105 59.1151 338.18 62.1637 338.226 65.9922V87.8996H331.983V67.8355C331.983 65.2359 331.324 63.18 330.006 61.6674C328.688 60.1548 326.849 59.3986 324.491 59.3986C321.577 59.3986 319.322 60.3912 317.727 62.3764C316.131 64.3615 315.333 67.0085 315.333 70.3169V87.8996H309.09V54.294H315.333V59.4695H315.472C316.351 57.5789 317.773 56.1019 319.739 55.0384C321.704 53.975 323.889 53.4432 326.294 53.4432ZM376.243 46.9206L364.38 87.8996H357.373L343.013 37.7039H349.95L360.773 77.8321H360.911L372.497 37.7039H380.128L391.713 77.8321H391.852L402.674 37.7039H409.611L395.32 87.8996H388.314L376.382 46.9206H376.243ZM424.318 53.4432C428.481 53.4432 431.776 54.412 434.204 56.3498C436.632 58.2877 437.915 60.9819 438.054 64.4322V82.4403C438.054 84.1418 438.147 85.9615 438.332 87.8994H432.782C432.643 86.3869 432.574 84.6854 432.574 82.7947H432.435C431.001 84.969 429.348 86.5052 427.475 87.4031C425.602 88.301 423.416 88.7502 420.919 88.7502C417.543 88.7502 414.803 87.8285 412.698 85.9852C410.594 84.1418 409.542 81.7075 409.542 78.6827C409.542 74.8542 411.114 71.9591 414.259 69.9977C417.404 68.0363 421.844 67.0554 427.579 67.0554H432.227V65.8501C432.227 63.5814 431.498 61.7973 430.042 60.4974C428.585 59.1974 426.677 58.5477 424.318 58.5477C422.561 58.5477 421.023 58.8194 419.705 59.363C418.387 59.9066 416.826 60.911 415.022 62.3762L411.276 58.4059C414.837 55.1919 419.185 53.5379 424.318 53.4432ZM415.785 78.1866C415.785 81.8261 418.144 83.6457 422.861 83.6457C425.683 83.6457 427.937 82.7831 429.625 81.058C431.313 79.3328 432.18 76.8395 432.227 73.5782V71.7349H428.689C424.619 71.7349 421.451 72.2666 419.185 73.3301C416.918 74.3936 415.785 76.0124 415.785 78.1866ZM450.402 54.294L460.184 80.5262H460.323L469.619 54.294H476.348L460.808 94.9894C459.375 98.9125 457.802 101.547 456.091 102.895C454.38 104.242 452.183 104.915 449.501 104.915C447.234 104.915 445.384 104.608 443.951 103.993L444.714 98.2507C446.009 98.7234 447.258 98.9597 448.46 98.9597C450.402 98.9597 451.802 98.4752 452.657 97.5063C453.513 96.5373 454.264 95.1548 454.912 93.3588L456.854 88.1123L443.188 54.294H450.402Z" fill="white"/>
<mask id="mask0_151_202" style="mask-type:alpha" maskUnits="userSpaceOnUse" x="41" y="12" width="92" height="92">
<ellipse cx="87.3807" cy="58.2404" rx="45.5955" ry="45.5953" fill="#D9D9D9"/>
</mask>
<g mask="url(#mask0_151_202)">
<mask id="mask1_151_202" style="mask-type:luminance" maskUnits="userSpaceOnUse" x="41" y="10" width="97" height="99">
<path d="M137.727 10.3794L41.7578 10.3794L41.7578 108.458L137.727 108.458V10.3794Z" fill="white"/>
</mask>
<g mask="url(#mask1_151_202)">
<path d="M137.727 10.3794L41.7578 10.3794L41.7578 108.458L137.727 108.458V10.3794Z" fill="white"/>
<path d="M137.727 108.458L41.7578 108.458L41.7578 10.3794L137.727 10.3794V108.458Z" fill="url(#paint0_linear_151_202)"/>
<path d="M57.5918 74.0171L59.8627 76.3365L89.6214 45.9297L119.38 76.3365L121.651 74.0171L89.6214 41.2734L57.5918 74.0171Z" fill="white"/>
</g>
</g>
<defs>
<linearGradient id="paint0_linear_151_202" x1="41.7578" y1="10.3794" x2="139.813" y2="106.325" gradientUnits="userSpaceOnUse">
<stop stop-color="#155DFC"/>
<stop offset="0.5" stop-color="#1447E6"/>
<stop offset="1" stop-color="#193CB8"/>
</linearGradient>
</defs>
</svg>
